<svg xmlns="http://www.w3.org/2000/svg" version="1.1" xmlns:xlink="http://www.w3.org/1999/xlink" xmlns:svgjs="http://svgjs.dev/svgjs" width="1500" height="1500" viewBox="0 0 1500 1500"><rect width="1500" height="1500" fill="#000000"></rect><g transform="matrix(0.6666666666666666,0,0,0.6666666666666666,249.78425655976667,249.78425655976673)"><svg viewBox="0 0 343 343" data-background-color="#dedede" preserveAspectRatio="xMidYMid meet" height="1500" width="1500" xmlns="http://www.w3.org/2000/svg" xmlns:xlink="http://www.w3.org/1999/xlink"><g id="tight-bounds" transform="matrix(1,0,0,1,0.0740000000000407,0.07400000000001228)"><svg viewBox="0 0 342.85155851775386 342.85155851775386" height="342.85155851775386" width="342.85155851775386"><g><svg></svg></g><g><svg viewBox="0 0 342.85155851775386 342.85155851775386" height="342.85155851775386" width="342.85155851775386"><g><path d="M0 171.426c0-94.676 76.75-171.426 171.426-171.426 94.676 0 171.426 76.75 171.426 171.426 0 94.676-76.75 171.426-171.426 171.426-94.676 0-171.426-76.75-171.426-171.426zM171.426 336.512c91.174 0 165.086-73.911 165.086-165.086 0-91.174-73.911-165.086-165.086-165.086-91.174 0-165.086 73.911-165.086 165.086 0 91.174 73.911 165.086 165.086 165.086z" data-fill-palette-color="tertiary" fill="#ffffff" stroke="transparent"></path><ellipse rx="164.56874808852186" ry="164.56874808852186" cx="171.42577925887693" cy="171.42577925887693" fill="#ffffff" stroke="transparent" stroke-width="0" fill-opacity="1" data-fill-palette-color="tertiary"></ellipse></g><g transform="matrix(1,0,0,1,64.84655864529837,136.2741396506956)"><svg viewBox="0 0 213.1584412271571 70.3032792163627" height="70.3032792163627" width="213.1584412271571"><g><svg viewBox="0 0 213.1584412271571 70.3032792163627" height="70.3032792163627" width="213.1584412271571"><g><svg viewBox="0 0 213.1584412271571 70.3032792163627" height="70.3032792163627" width="213.1584412271571"><g><svg viewBox="0 0 213.1584412271571 70.3032792163627" height="70.3032792163627" width="213.1584412271571"><g id="textblocktransform"><svg viewBox="0 0 213.1584412271571 70.3032792163627" height="70.3032792163627" width="213.1584412271571" id="textblock"><g><svg viewBox="0 0 213.1584412271571 70.3032792163627" height="70.3032792163627" width="213.1584412271571"><g transform="matrix(1,0,0,1,0,0)"><svg width="213.1584412271571" viewBox="-0.3400000035762787 -35.939998626708984 113.38999938964844 37.39999771118164" height="70.3032792163627" data-palette-color="#dedede"><path d="M24.56-20.12L24.56-20.12Q24.56-18.68 24.56-17.26 24.56-15.84 24.41-14.4L24.41-14.4Q24.15-11.35 23.1-8.63 22.05-5.91 20.25-3.86 18.46-1.81 15.89-0.61 13.33 0.59 10.01 0.59L10.01 0.59Q8.72 0.59 7.31 0.37 5.91 0.15 4.53-0.29 3.15-0.73 1.89-1.38 0.63-2.03-0.34-2.88L-0.34-2.88 1.17-12.99Q2.61-11.6 4.37-10.73 6.13-9.86 8.2-9.86L8.2-9.86Q9.55-9.86 10.47-10.25 11.4-10.64 12.01-11.33 12.62-12.01 12.98-12.93 13.33-13.84 13.49-14.88 13.65-15.92 13.68-17.02 13.72-18.12 13.72-19.19L13.72-19.19Q13.72-23.07 13.33-26.92 12.94-30.76 12.65-34.62L12.65-34.62 23.83-35.35Q24.56-27.73 24.56-20.12ZM46.97-34.96L56.49-2.1 44.38-0.54 42.92-6.05 37.35-6.05 36.13-0.54 23.68-1.76 33.4-34.28 46.97-34.96ZM38.38-13.53L42.04-13.53 40.18-22.02 38.38-13.53ZM80.56-34.33L80.56-34.33 79.19-24.02Q78.49-24.22 77.78-24.29 77.07-24.37 76.36-24.37L76.36-24.37Q74.56-24.37 72.92-23.89 71.28-23.41 70.03-22.44 68.77-21.46 68.02-20 67.28-18.53 67.28-16.55L67.28-16.55Q67.28-15.28 67.68-14.36 68.09-13.43 68.82-12.82 69.55-12.21 70.55-11.91 71.55-11.62 72.75-11.62L72.75-11.62Q73.65-11.62 74.63-11.82 75.61-12.01 76.56-12.33 77.51-12.65 78.41-13.06 79.32-13.48 80.07-13.92L80.07-13.92 79.1-2.44Q78.14-1.95 77.03-1.57 75.92-1.2 74.75-0.92 73.58-0.63 72.41-0.49 71.24-0.34 70.16-0.34L70.16-0.34Q67.06-0.34 64.37-1.49 61.69-2.64 59.71-4.64 57.73-6.64 56.6-9.36 55.46-12.08 55.46-15.23L55.46-15.23Q55.46-19.41 56.66-23.11 57.86-26.81 60.18-29.59 62.5-32.37 65.93-33.98 69.36-35.6 73.82-35.6L73.82-35.6Q75.51-35.6 77.28-35.33 79.05-35.06 80.56-34.33ZM100.75-35.94L113.05-34.96 101.29-18.7 111.2-1.42 99.87 0.59 92.45-9.96 92.06 1.07 81.9 1.46 82.68-35.94 94.06-35.3 93.18-24.27 100.75-35.94Z" opacity="1" transform="matrix(1,0,0,1,0,0)" fill="#000000" class="undefined-text-0" data-fill-palette-color="quaternary" id="text-0"></path></svg></g></svg></g></svg></g></svg></g><g></g></svg></g></svg></g></svg></g></svg></g><defs></defs></svg><rect width="342.85155851775386" height="342.85155851775386" fill="none" stroke="none" visibility="hidden"></rect></g></svg></g></svg>